# xmcd
#
# Track frame offsets:
#	187
#	15625
#	32300
#	56670
#	72392
#	92387
#	111527
#	128865
#	147617
#	164665
#
# Disc length: 2458 seconds
#
# Revision: 1
# Processed by: cddbd v1.5PL3 Copyright (c) Steve Scherf et al.
# Submitted via: CDex 1.50Beta5
#
DISCID=8d09980a
DTITLE=森口博子 - STILL LOVE YOU
DYEAR=1989
DGENRE=Pop
TTITLE0=WELCOME TO THE PARADISE
TTITLE1=水の星へ愛をこめて
TTITLE2=STILL LOVE YOU
TTITLE3=エンドレス・ドリーム
TTITLE4=BE FREE
TTITLE5=遠くから見ていて
TTITLE6=枯葉色のスマイル
TTITLE7=Secret Love
TTITLE8=哀しみのSurrender
TTITLE9=サムライハート
EXTD=
EXTT0=
EXTT1=
EXTT2=
EXTT3=
EXTT4=
EXTT5=
EXTT6=
EXTT7=
EXTT8=
EXTT9=
PLAYORDER=
